# xmcd
#
# Track frame offsets:
#	150
#	18705
#	41595
#	62537
#	87605
#	107737
#	127877
#	155717
#	177709
#	198322
#	225475
#	246925
#	265195
#	286980
#	307725
#
# Disc length: 4370 seconds
#
# Revision: 3
# Processed by: cddbd v1.5.2PL0 Copyright (c) Steve Scherf et al.
# Submitted via: audiograbber 1.83.01
#
DISCID=cf11100f
DTITLE=Various Artist - SC8252
DYEAR=1900
DGENRE=Karaoke
TTITLE0=Megadeth - Symphony Of Destruction
TTITLE1=Metallica - Enter Sandman
TTITLE2=AC/DC - Back In Black
TTITLE3=Black Sabbath - Iron Man
TTITLE4=Def Leppard - Photograph
TTITLE5=Iron Maiden - Run To The Hills
TTITLE6=Guns N' Roses - Sweet Child O' Mine
TTITLE7=Judas Priest - You've Got Another Thing Comin'
TTITLE8=Dokken - Burning Like A Flame
TTITLE9=Queensryche - Silent Lucidity
TTITLE10=Motley Crue - Dr. Feelgood
TTITLE11=Skid Row - 18 And Life
TTITLE12=Osbourne, Ozzy - Crazy Train
TTITLE13=Quiet Riot - Cum On Feel The Noize
TTITLE14=Scorpions, The - Rock You Like A Hurricane
EXTD=
EXTT0=
EXTT1=
EXTT2=
EXTT3=
EXTT4=
EXTT5=
EXTT6=
EXTT7=
EXTT8=
EXTT9=
EXTT10=
EXTT11=
EXTT12=
EXTT13=
EXTT14=
PLAYORDER=
